ffmpeg version 6.0-essentials_build-www.gyan.dev Copyright (c) 2000-2023 the FFmpeg developers
  built with gcc 12.2.0 (Rev10, Built by MSYS2 project)
  configuration: --enable-gpl --enable-version3 --enable-static --disable-w32threads --disable-autodetect --enable-fontconfig --enable-iconv --enable-gnutls --enable-libxml2 --enable-gmp --enable-lzma --enable-zlib --enable-libsrt --enable-libssh --enable-libzmq --enable-avisynth --enable-sdl2 --enable-libwebp --enable-libx264 --enable-libx265 --enable-libxvid --enable-libaom --enable-libopenjpeg --enable-libvpx --enable-libass --enable-libfreetype --enable-libfribidi --enable-libvidstab --enable-libvmaf --enable-libzimg --enable-amf --enable-cuda-llvm --enable-cuvid --enable-ffnvcodec --enable-nvdec --enable-nvenc --enable-d3d11va --enable-dxva2 --enable-libmfx --enable-libgme --enable-libopenmpt --enable-libopencore-amrwb --enable-libmp3lame --enable-libtheora --enable-libvo-amrwbenc --enable-libgsm --enable-libopencore-amrnb --enable-libopus --enable-libspeex --enable-libvorbis --enable-librubberband
  libavutil      58.  2.100 / 58.  2.100
  libavcodec     60.  3.100 / 60.  3.100
  libavformat    60.  3.100 / 60.  3.100
  libavdevice    60.  1.100 / 60.  1.100
  libavfilter     9.  3.100 /  9.  3.100
  libswscale      7.  1.100 /  7.  1.100
  libswresample   4. 10.100 /  4. 10.100
  libpostproc    57.  1.100 / 57.  1.100
ffmpeg stats and -progress period set to 10.
Guessed Channel Layout for Input Stream #0.0 : stereo
Input #0, dshow, from 'audio=Mixage stéréo (Realtek(R) Audio)':
  Duration: N/A, start: 11461.171000, bitrate: 1411 kb/s
  Stream #0:0: Audio: pcm_s16le, 44100 Hz, 2 channels, s16, 1411 kb/s
Stream mapping:
  Stream #0:0 -> #0:0 (pcm_s16le (native) -> opus (libopus))
Press [q] to stop, [?] for help
[libopus @ 000001fb63bb8f00] No bit rate set. Defaulting to 96000 bps.
Output #0, rtp, to 'rtp://127.0.0.1:5005':
  Metadata:
    encoder         : Lavf60.3.100
  Stream #0:0: Audio: opus, 48000 Hz, stereo, s16, 96 kb/s
    Metadata:
      encoder         : Lavc60.3.100 libopus
SDP:
v=0
o=- 0 0 IN IP4 127.0.0.1
s=No Name
c=IN IP4 127.0.0.1
t=0 0
a=tool:libavformat 60.3.100
m=audio 5005 RTP/AVP 97
b=AS:96
a=rtpmap:97 opus/48000/2
a=fmtp:97 sprop-stereo=1

size=       5kB time=00:00:00.45 bitrate=  97.4kbits/s speed=N/A    size=     135kB time=00:00:10.97 bitrate= 100.6kbits/s speed= 1.1x    size=     258kB time=00:00:20.97 bitrate= 100.7kbits/s speed=1.05x    size=     387kB time=00:00:31.47 bitrate= 100.8kbits/s speed=1.03x    size=     516kB time=00:00:41.97 bitrate= 100.8kbits/s speed=1.02x    size=     646kB time=00:00:52.47 bitrate= 100.8kbits/s speed=1.02x    size=     768kB time=00:01:02.46 bitrate= 100.8kbits/s speed=1.02x    size=     898kB time=00:01:12.97 bitrate= 100.8kbits/s speed=1.01x    size=    1021kB time=00:01:22.97 bitrate= 100.8kbits/s speed=1.01x    size=    1150kB time=00:01:33.47 bitrate= 100.8kbits/s speed=1.01x    size=    1280kB time=00:01:43.96 bitrate= 100.8kbits/s speed=1.01x    size=    1409kB time=00:01:54.47 bitrate= 100.8kbits/s speed=1.01x    size=    1538kB time=00:02:04.97 bitrate= 100.8kbits/s speed=1.01x    size=    1667kB time=00:02:15.47 bitrate= 100.8kbits/s speed=1.01x    size=    1790kB time=00:02:25.46 bitrate= 100.8kbits/s speed=1.01x    size=    1913kB time=00:02:35.46 bitrate= 100.8kbits/s speed=1.01x    size=    2043kB time=00:02:45.97 bitrate= 100.8kbits/s speed=1.01x    size=    2172kB time=00:02:56.47 bitrate= 100.8kbits/s speed=1.01x    size=    2301kB time=00:03:06.96 bitrate= 100.8kbits/s speed=1.01x    size=    2423kB time=00:03:16.96 bitrate= 100.8kbits/s speed=   1x    size=    2554kB time=00:03:27.46 bitrate= 100.8kbits/s speed=   1x    size=    2683kB time=00:03:37.96 bitrate= 100.8kbits/s speed=   1x    size=    2806kB time=00:03:47.96 bitrate= 100.8kbits/s speed=   1x    size=    2929kB time=00:03:57.96 bitrate= 100.8kbits/s speed=   1x    size=    3058kB time=00:04:08.47 bitrate= 100.8kbits/s speed=   1x    size=    3181kB time=00:04:18.46 bitrate= 100.8kbits/s speed=   1x    size=    3311kB time=00:04:28.97 bitrate= 100.8kbits/s speed=   1x    size=    3434kB time=00:04:38.97 bitrate= 100.8kbits/s speed=   1x    size=    3563kB time=00:04:49.46 bitrate= 100.8kbits/s speed=   1x    size=    3692kB time=00:04:59.96 bitrate= 100.8kbits/s speed=   1x    size=    3815kB time=00:05:09.96 bitrate= 100.8kbits/s speed=   1x    size=    3943kB time=00:05:20.46 bitrate= 100.8kbits/s speed=   1x    size=    4072kB time=00:05:30.96 bitrate= 100.8kbits/s speed=   1x    size=    4197kB time=00:05:40.96 bitrate= 100.8kbits/s speed=   1x    size=    4326kB time=00:05:51.46 bitrate= 100.8kbits/s speed=   1x    size=    4449kB time=00:06:01.46 bitrate= 100.8kbits/s speed=   1x    size=    4579kB time=00:06:11.96 bitrate= 100.8kbits/s speed=   1x    size=    4708kB time=00:06:22.46 bitrate= 100.8kbits/s speed=   1x    size=    4831kB time=00:06:32.46 bitrate= 100.8kbits/s speed=   1x    size=    4954kB time=00:06:42.46 bitrate= 100.8kbits/s speed=   1x    size=    5077kB time=00:06:52.46 bitrate= 100.8kbits/s speed=   1x    size=    5200kB time=00:07:02.46 bitrate= 100.8kbits/s speed=   1x    size=    5329kB time=00:07:12.96 bitrate= 100.8kbits/s speed=   1x    [libopus @ 000001fb63bb8f00] Queue input is backward in time
    Last message repeated 1 times
size=    5459kB time=00:07:23.46 bitrate= 100.8kbits/s speed=   1x    size=    5588kB time=00:07:33.96 bitrate= 100.8kbits/s speed=   1x    size=    5717kB time=00:07:44.46 bitrate= 100.8kbits/s speed=   1x    size=    5847kB time=00:07:54.96 bitrate= 100.8kbits/s speed=   1x    size=    5976kB time=00:08:05.46 bitrate= 100.8kbits/s speed=   1x    [libopus @ 000001fb63bb8f00] Queue input is backward in time
size=    6105kB time=00:08:15.96 bitrate= 100.8kbits/s speed=   1x    size=    6234kB time=00:08:26.46 bitrate= 100.8kbits/s speed=   1x    size=    6364kB time=00:08:36.96 bitrate= 100.8kbits/s speed=   1x    size=    6486kB time=00:08:46.96 bitrate= 100.8kbits/s speed=   1x    size=    6610kB time=00:08:56.96 bitrate= 100.8kbits/s speed=   1x    size=    6732kB time=00:09:06.96 bitrate= 100.8kbits/s speed=   1x    size=    6862kB time=00:09:17.46 bitrate= 100.8kbits/s speed=   1x    size=    6985kB time=00:09:27.46 bitrate= 100.8kbits/s speed=   1x    size=    7114kB time=00:09:37.96 bitrate= 100.8kbits/s speed=   1x    size=    7244kB time=00:09:48.46 bitrate= 100.8kbits/s speed=   1x    size=    7373kB time=00:09:58.96 bitrate= 100.8kbits/s speed=   1x    size=    7502kB time=00:10:09.46 bitrate= 100.8kbits/s speed=   1x    size=    7631kB time=00:10:19.96 bitrate= 100.8kbits/s speed=   1x    size=    7755kB time=00:10:29.96 bitrate= 100.8kbits/s speed=   1x    size=    7884kB time=00:10:40.46 bitrate= 100.8kbits/s speed=   1x    size=    8007kB time=00:10:50.46 bitrate= 100.8kbits/s speed=   1x    size=    8130kB time=00:11:00.46 bitrate= 100.8kbits/s speed=   1x    size=    8253kB time=00:11:10.46 bitrate= 100.8kbits/s speed=   1x    size=    8382kB time=00:11:20.96 bitrate= 100.8kbits/s speed=   1x    size=    8505kB time=00:11:30.96 bitrate= 100.8kbits/s speed=   1x    size=    8629kB time=00:11:40.96 bitrate= 100.8kbits/s speed=   1x    size=    8758kB time=00:11:51.46 bitrate= 100.8kbits/s speed=   1x    size=    8881kB time=00:12:01.46 bitrate= 100.8kbits/s speed=   1x    size=    9010kB time=00:12:11.96 bitrate= 100.8kbits/s speed=   1x    size=    9139kB time=00:12:22.46 bitrate= 100.8kbits/s speed=   1x    size=    9269kB time=00:12:32.96 bitrate= 100.8kbits/s speed=   1x    size=    9392kB time=00:12:42.96 bitrate= 100.8kbits/s speed=   1x    size=    9515kB time=00:12:52.96 bitrate= 100.8kbits/s speed=   1x    size=    9644kB time=00:13:03.46 bitrate= 100.8kbits/s speed=   1x    size=    9767kB time=00:13:13.46 bitrate= 100.8kbits/s speed=   1x    size=    9896kB time=00:13:23.96 bitrate= 100.8kbits/s speed=   1x    size=   10020kB time=00:13:33.96 bitrate= 100.8kbits/s speed=   1x    size=   10149kB time=00:13:44.46 bitrate= 100.8kbits/s speed=   1x    size=   10278kB time=00:13:54.96 bitrate= 100.8kbits/s speed=   1x    size=   10401kB time=00:14:04.96 bitrate= 100.8kbits/s speed=   1x    size=   10530kB time=00:14:15.46 bitrate= 100.8kbits/s speed=   1x    size=   10660kB time=00:14:25.96 bitrate= 100.8kbits/s speed=   1x    size=   10783kB time=00:14:35.96 bitrate= 100.8kbits/s speed=   1x    size=   10905kB time=00:14:45.96 bitrate= 100.8kbits/s speed=   1x    size=   11035kB time=00:14:56.46 bitrate= 100.8kbits/s speed=   1x    size=   11164kB time=00:15:06.96 bitrate= 100.8kbits/s speed=   1x    size=   11294kB time=00:15:17.46 bitrate= 100.8kbits/s speed=   1x    size=   11423kB time=00:15:27.96 bitrate= 100.8kbits/s speed=   1x    size=   11552kB time=00:15:38.46 bitrate= 100.8kbits/s speed=   1x    size=   11675kB time=00:15:48.46 bitrate= 100.8kbits/s speed=   1x    size=   11804kB time=00:15:58.96 bitrate= 100.8kbits/s speed=   1x    size=   11928kB time=00:16:08.96 bitrate= 100.8kbits/s speed=   1x    size=   12051kB time=00:16:18.96 bitrate= 100.8kbits/s speed=   1x    size=   12174kB time=00:16:28.96 bitrate= 100.8kbits/s speed=   1x    size=   12297kB time=00:16:38.96 bitrate= 100.8kbits/s speed=   1x    size=   12426kB time=00:16:49.46 bitrate= 100.8kbits/s speed=   1x    size=   12549kB time=00:16:59.46 bitrate= 100.8kbits/s speed=   1x    size=   12672kB time=00:17:09.46 bitrate= 100.8kbits/s speed=   1x    size=   12802kB time=00:17:19.96 bitrate= 100.8kbits/s speed=   1x    size=   12925kB time=00:17:29.96 bitrate= 100.8kbits/s speed=   1x    size=   13048kB time=00:17:39.96 bitrate= 100.8kbits/s speed=   1x    size=   13171kB time=00:17:49.96 bitrate= 100.8kbits/s speed=   1x    size=   13300kB time=00:18:00.46 bitrate= 100.8kbits/s speed=   1x    size=   13429kB time=00:18:10.96 bitrate= 100.8kbits/s speed=   1x    size=   13552kB time=00:18:20.96 bitrate= 100.8kbits/s speed=   1x    size=   13682kB time=00:18:31.46 bitrate= 100.8kbits/s speed=   1x    size=   13805kB time=00:18:41.46 bitrate= 100.8kbits/s speed=   1x    size=   13934kB time=00:18:51.96 bitrate= 100.8kbits/s speed=   1x    size=   14063kB time=00:19:02.46 bitrate= 100.8kbits/s speed=   1x    size=   14191kB time=00:19:12.96 bitrate= 100.8kbits/s speed=   1x    size=   14316kB time=00:19:22.96 bitrate= 100.8kbits/s speed=   1x    size=   14445kB time=00:19:33.46 bitrate= 100.8kbits/s speed=   1x    size=   14568kB time=00:19:43.46 bitrate= 100.8kbits/s speed=   1x    size=   14697kB time=00:19:53.96 bitrate= 100.8kbits/s speed=   1x    size=   14820kB time=00:20:03.96 bitrate= 100.8kbits/s speed=   1x    size=   14948kB time=00:20:14.46 bitrate= 100.8kbits/s speed=   1x    size=   15073kB time=00:20:24.46 bitrate= 100.8kbits/s speed=   1x    size=   15196kB time=00:20:34.46 bitrate= 100.8kbits/s speed=   1x    size=   15325kB time=00:20:44.96 bitrate= 100.8kbits/s speed=   1x    size=   15448kB time=00:20:54.96 bitrate= 100.8kbits/s speed=   1x    size=   15577kB time=00:21:05.46 bitrate= 100.8kbits/s speed=   1x    size=   15707kB time=00:21:15.96 bitrate= 100.8kbits/s speed=   1x    size=   15830kB time=00:21:25.96 bitrate= 100.8kbits/s speed=   1x    size=   15959kB time=00:21:36.46 bitrate= 100.8kbits/s speed=   1x    size=   16088kB time=00:21:46.96 bitrate= 100.8kbits/s speed=   1x    size=   16218kB time=00:21:57.46 bitrate= 100.8kbits/s speed=   1x    size=   16347kB time=00:22:07.96 bitrate= 100.8kbits/s speed=   1x    size=   16470kB time=00:22:17.96 bitrate= 100.8kbits/s speed=   1x    size=   16599kB time=00:22:28.46 bitrate= 100.8kbits/s speed=   1x    size=   16722kB time=00:22:38.46 bitrate= 100.8kbits/s speed=   1x    size=   16851kB time=00:22:48.96 bitrate= 100.8kbits/s speed=   1x    size=   16981kB time=00:22:59.46 bitrate= 100.8kbits/s speed=   1x    